#!OML:ASF F:\VICON\USERDATA\INSTALL\rory3\rory3.ASF
:FULLY-SPECIFIED
:DEGREES
380
root 0.493109 17.7773 -19.4419 -2.1366 3.28486 -0.854754
lowerback 8.86405 0.0225508 -0.897013
upperback 0.754749 0.0670817 2.79363
thorax -4.19396 0.0733035 3.4054
lowerneck -14.7831 -4.6972 -9.2785
upperneck 12.7655 -5.48524 6.96921
head 6.77259 -2.52278 3.19825
rclavicle -6.90777e-015 1.82882e-014
rhumerus -29.2088 -10.0042 -79.124
rradius 31.4726
rwrist 7.01743
rhand -14.0358 9.12124
rfingers 7.12502
rthumb 12.0946 -20.5092
lclavicle -6.90777e-015 1.82882e-014
lhumerus -31.9219 7.08418 85.401
lradius 30.0868
lwrist -1.97609
lhand -20.6158 21.0851
lfingers 7.12502
lthumb 5.7453 50.9872
rfemur -9.71194 5.03907 21.057
rtibia 22.1681
rfoot -21.3424 -18.7217
rtoes 8.76114
lfemur -12.4217 -7.19987 -16.9895
ltibia 22.224
lfoot -26.37 6.99386
ltoes -8.85715
381
root 0.490443 17.7761 -19.4609 -2.15779 3.36056 -0.938096
lowerback 8.93315 -0.00439317 -0.901898
upperback 0.816762 0.0332029 2.86521
thorax -4.16588 0.0562712 3.48747
lowerneck -15.0245 -4.75059 -9.35249
upperneck 12.854 -5.52829 6.99756
head 6.84892 -2.54013 3.2116
rclavicle 1.01877e-014 1.90833e-014
rhumerus -29.0268 -9.92889 -79.1536
rradius 31.6581
rwrist 7.86761
rhand -14.4478 8.01146
rfingers 7.12502
rthumb 11.6973 -21.642
lclavicle 1.01877e-014 1.90833e-014
lhumerus -31.6832 7.35742 85.2822
lradius 29.8455
lwrist -2.24962
lhand -20.6508 20.954
lfingers 7.12502
lthumb 5.71149 50.857
rfemur -9.75874 5.0823 21.1518
rtibia 22.1815
rfoot -21.3751 -18.6669
rtoes 9.02861
lfemur -12.4326 -7.17952 -16.873
ltibia 22.144
lfoot -26.7524 6.77617
ltoes -5.94301
382
root 0.49044 17.7751 -19.4753 -2.20159 3.40722 -0.945594
lowerback 8.97934 -0.0142307 -0.922501
upperback 0.848726 0.0184536 2.88114
thorax -4.15743 0.0490339 3.51785
lowerneck -15.1365 -4.72628 -9.45671
upperneck 12.9562 -5.48671 7.11937
head 6.90405 -2.51311 3.27224
rclavicle -2.5842e-015 1.90833e-014
rhumerus -29.0006 -9.67057 -79.3158
rradius 31.4696
rwrist 6.81271
rhand -15.2144 8.77299
rfingers 7.12502
rthumb 10.9579 -20.921
lclavicle -2.5842e-015 1.90833e-014
lhumerus -31.4569 7.66474 85.1317
lradius 29.5222
lwrist -2.58134
lhand -20.6359 20.6308
lfingers 7.12502
lthumb 5.72584 50.5334
rfemur -9.79691 5.15126 21.1571
rtibia 22.224
rfoot -21.3087 -18.6355
rtoes 9.16852
lfemur -12.3901 -7.20296 -16.8634
ltibia 22.0928
lfoot -26.9435 6.81907
ltoes -5.05543
383
root 0.494217 17.7754 -19.4869 -2.21584 3.51816 -0.699453
lowerback 8.97735 -0.0206777 -1.15064
upperback 0.857744 -0.0162445 2.80889
thorax -4.14443 0.0349165 3.57577
lowerneck -15.3096 -4.69757 -9.56067
upperneck 13.2529 -5.4423 7.23892
head 7.03215 -2.48421 3.3328
rclavicle 3.47873e-016 -1.19271e-014
rhumerus -29.0738 -9.64653 -79.4075
rradius 31.5196
rwrist 6.4732
rhand -14.6816 8.89398
rfingers 7.12502
rthumb 11.4719 -20.7721
lclavicle 3.47873e-016 -1.19271e-014
lhumerus -31.309 7.74557 85.0627
lradius 29.3536
lwrist -2.70497
lhand -20.5953 20.8799
lfingers 7.12502
lthumb 5.76509 50.7815
rfemur -9.81108 5.02404 20.8449
rtibia 22.2634
rfoot -21.3388 -18.4096
rtoes 9.79638
lfemur -12.3896 -7.23327 -17.1722
ltibia 22.0862
lfoot -27.0579 6.97184
ltoes -6.19449
384
root 0.496229 17.777 -19.5046 -2.21627 3.70657 -0.688525
lowerback 8.91471 -0.0627939 -1.16587
upperback 0.936706 -0.0750248 2.81481
thorax -4.02294 0.00360463 3.59636
lowerneck -15.3395 -4.84964 -9.41301
upperneck 13.0038 -5.64087 7.07656
head 6.96495 -2.58447 3.23059
rclavicle -1.86361e-014 2.46493e-014
rhumerus -29.0194 -9.64651 -79.4594
rradius 31.5996
rwrist 6.49832
rhand -15.3672 10.2995
rfingers 7.12502
rthumb 10.8106 -19.4023
lclavicle -1.86361e-014 2.46493e-014
lhumerus -31.1629 7.66507 85.0881
lradius 29.4121
lwrist -2.65209
lhand -20.7767 21.6264
lfingers 7.12502
lthumb 5.58995 51.5327
rfemur -9.83195 4.82192 20.796
rtibia 22.248
rfoot -21.4072 -18.2053
rtoes 9.82355
lfemur -12.4905 -7.29489 -17.2049
ltibia 22.1022
lfoot -27.1302 6.84276
ltoes -6.04639
385
root 0.495467 17.7758 -19.5254 -2.2245 3.85461 -0.769123
lowerback 8.91626 -0.0943901 -1.14437
upperback 1.00594 -0.113739 2.86936
thorax -3.94891 -0.0172576 3.64535
lowerneck -15.651 -4.73041 -9.57137
upperneck 13.2903 -5.44125 7.16543
head 7.10077 -2.48366 3.30602
rclavicle -7.90169e-015 1.43125e-014
rhumerus -28.8795 -9.61521 -79.5148
rradius 31.6049
rwrist 6.54181
rhand -15.3172 10.0583
rfingers 7.12502
rthumb 10.8588 -19.6409
lclavicle -7.90169e-015 1.43125e-014
lhumerus -31.1907 7.76953 84.9724
lradius 29.3491
lwrist -2.61799
lhand -20.8405 19.6651
lfingers 7.12502
lthumb 5.52832 49.573
rfemur -9.84564 4.79013 20.8699
rtibia 22.1777
rfoot -21.3038 -18.2423
rtoes 9.20457
lfemur -12.6118 -7.35267 -17.1084
ltibia 22.1301
lfoot -26.7515 6.73697
ltoes -5.63834
386
root 0.494165 17.7748 -19.549 -2.2926 4.02466 -1.05866
lowerback 9.1477 -0.168266 -0.895565
upperback 0.984224 -0.18065 2.98265
thorax -4.09654 -0.0513894 3.63435
lowerneck -15.4286 -4.9186 -9.51216
upperneck 12.7763 -5.6822 7.0109
head 6.91115 -2.61232 3.21809
rclavicle 6.41081e-015 1.27222e-014
rhumerus -28.8203 -9.2532 -79.6931
rradius 31.662
rwrist 6.36558
rhand -13.7147 7.78172
rfingers 7.12502
rthumb 12.4042 -21.8302
lclavicle 6.41081e-015 1.27222e-014
lhumerus -31.2414 7.89414 84.856
lradius 29.2974
lwrist -2.65837
lhand -20.6248 18.8257
lfingers 7.12502
lthumb 5.73665 48.728
rfemur -9.78818 4.90787 21.1904
rtibia 22.034
rfoot -21.1534 -18.4515
rtoes 9.04106
lfemur -12.752 -7.37811 -16.7846
ltibia 22.2351
lfoot -26.1594 6.86362
ltoes -6.8323
387
root 0.489359 17.7726 -19.5728 -2.39017 4.12369 -1.23241
lowerback 9.33007 -0.202437 -0.8128
upperback 1.01579 -0.213238 3.06351
thorax -4.16329 -0.0677227 3.67851
lowerneck -15.6495 -4.75263 -9.84186
upperneck 13.2055 -5.44133 7.37474
head 7.08696 -2.47914 3.41899
rclavicle -7.05686e-015 4.6118e-014
rhumerus -28.6661 -9.11259 -79.8297
rradius 31.59
rwrist 6.26497
rhand -13.1556 7.74382
rfingers 7.12502
rthumb 12.9432 -21.8347
lclavicle -7.05686e-015 4.6118e-014
lhumerus -31.0792 8.06256 84.7807
lradius 29.2475
lwrist -2.75911
lhand -20.2938 19.7056
lfingers 7.12502
lthumb 6.05616 49.599
rfemur -9.71626 5.2313 21.3982
rtibia 21.9178
rfoot -21.1243 -18.7997
rtoes 9.40088
lfemur -12.8376 -7.36438 -16.5799
ltibia 22.3361
lfoot -25.9049 6.85122
ltoes -7.19983
